<svg xmlns="http://www.w3.org/2000/svg" width="80" height="56" viewBox="0 0 80 56">
  <path id="solid_users" data-name="solid users" d="M12,56a8,8,0,1,0-8-8A8.007,8.007,0,0,0,12,56Zm56,0a8,8,0,1,0-8-8A8.007,8.007,0,0,0,68,56Zm4,4H64a7.976,7.976,0,0,0-5.638,2.325A18.284,18.284,0,0,1,67.75,76H76a4,4,0,0,0,4-4V68A8.007,8.007,0,0,0,72,60ZM40,60A14,14,0,1,0,26,46,13.993,13.993,0,0,0,40,60Zm9.6,4H48.562a19.329,19.329,0,0,1-17.125,0H30.4A14.4,14.4,0,0,0,16,78.4V82a6,6,0,0,0,6,6H58a6,6,0,0,0,6-6V78.4A14.4,14.4,0,0,0,49.6,64ZM21.637,62.325A7.976,7.976,0,0,0,16,60H8a8.007,8.007,0,0,0-8,8v4a4,4,0,0,0,4,4h8.237a18.33,18.33,0,0,1,9.4-13.675Z" transform="translate(0 -32)" fill="#fff"/>
</svg>
