<svg xmlns="http://www.w3.org/2000/svg" width="80" height="61.257" viewBox="0 0 80 61.257">
  <path id="solid_sign-in-alt" data-name="solid sign-in-alt" d="M65,124H51.875A1.881,1.881,0,0,1,50,122.125v-6.25A1.881,1.881,0,0,1,51.875,114H65a5,5,0,0,0,5-5V79a5,5,0,0,0-5-5H51.875A1.881,1.881,0,0,1,50,72.125v-6.25A1.881,1.881,0,0,1,51.875,64H65A15,15,0,0,1,80,79v30A15,15,0,0,1,65,124ZM57.656,92.594l-26.25-26.25A3.756,3.756,0,0,0,25,69V84H3.75A3.741,3.741,0,0,0,0,87.75v15a3.741,3.741,0,0,0,3.75,3.75H25v15a3.756,3.756,0,0,0,6.406,2.656l26.25-26.25A3.782,3.782,0,0,0,57.656,92.594Z" transform="translate(0 -64)" fill="#fff"/>
</svg>
