<svg xmlns="http://www.w3.org/2000/svg" width="80" height="60.966" viewBox="0 0 80 60.966">
  <path id="solid_sign-out-alt" data-name="solid sign-out-alt" d="M78.893,97.158,52.225,123.826a3.816,3.816,0,0,1-6.508-2.7V105.889H24.128a3.8,3.8,0,0,1-3.81-3.81V86.84a3.8,3.8,0,0,1,3.81-3.81H45.717V67.792a3.818,3.818,0,0,1,6.508-2.7L78.893,91.761A3.842,3.842,0,0,1,78.893,97.158ZM30.478,123.033v-6.35a1.91,1.91,0,0,0-1.9-1.9H15.239a5.074,5.074,0,0,1-5.08-5.08V79.221a5.074,5.074,0,0,1,5.08-5.08H28.573a1.91,1.91,0,0,0,1.9-1.9v-6.35a1.91,1.91,0,0,0-1.9-1.9H15.239A15.243,15.243,0,0,0,0,79.221V109.7a15.243,15.243,0,0,0,15.239,15.239H28.573A1.91,1.91,0,0,0,30.478,123.033Z" transform="translate(0 -63.979)" fill="#fff"/>
</svg>
