<svg xmlns="http://www.w3.org/2000/svg" width="80" height="71.123" viewBox="0 0 80 71.123">
  <path id="regular_edit" data-name="regular edit" d="M55.876,47.839l4.445-4.445a1.117,1.117,0,0,1,1.9.792V64.381a6.669,6.669,0,0,1-6.667,6.667H6.667A6.669,6.669,0,0,1,0,64.381V15.491A6.669,6.669,0,0,1,6.667,8.824H44.654a1.118,1.118,0,0,1,.792,1.9L41,15.172a1.1,1.1,0,0,1-.792.319H6.667v48.89h48.89V48.617A1.092,1.092,0,0,1,55.876,47.839Zm21.75-28.028L41.154,56.284,28.6,57.673a5.738,5.738,0,0,1-6.333-6.333l1.389-12.556L60.126,2.31a8.106,8.106,0,0,1,11.486,0l6,6a8.136,8.136,0,0,1,.014,11.5ZM63.9,24.1l-8.07-8.07L30.028,41.853l-1.014,9.07,9.07-1.014Zm9-11.07-6-6a1.45,1.45,0,0,0-2.056,0l-4.292,4.292,8.07,8.07L72.918,15.1A1.48,1.48,0,0,0,72.9,13.033Z" transform="translate(0 0.075)" fill="#fff"/>
</svg>
